<svg xmlns="http://www.w3.org/2000/svg" viewBox="0 0 319.13 180.34"><defs><style>.cls-1{fill:#6fcbdc;}.cls-2{fill:#85bb64;}.cls-3{fill:#539677;}.cls-4{fill:#091334;}</style></defs><title>Asset 14</title><g id="Layer_2" data-name="Layer 2"><g id="Banner"><path class="cls-1" d="M125.6,90a56.84,56.84,0,0,1,33,51.53h45.05A101.89,101.89,0,0,0,152.06,53,56.77,56.77,0,0,0,125.6,90Z"/><path class="cls-1" d="M0,141.5H45.05a56.86,56.86,0,0,1,35-52.43,100.77,100.77,0,0,1,20.31-49.36A101.91,101.91,0,0,0,0,141.5Z"/><path class="cls-2" d="M221.23,61.63l31.86-31.86a102,102,0,0,0-144,0,103.49,103.49,0,0,0-8.73,9.94l1.44,0A101.22,101.22,0,0,1,152.06,53,56.86,56.86,0,0,1,221.23,61.63Z"/><path class="cls-2" d="M80.06,89.07a104.81,104.81,0,0,0-.77,12.69,101.6,101.6,0,0,0,8,39.74h53.27A56.79,56.79,0,0,1,125.6,90a56.76,56.76,0,0,0-45.54-.9Z"/><path class="cls-3" d="M100.37,39.71A100.77,100.77,0,0,0,80.06,89.07a56.76,56.76,0,0,1,45.54.9,56.77,56.77,0,0,1,26.46-37,101.22,101.22,0,0,0-50.25-13.29Z"/><path class="cls-4" d="M12.72,155.38a11.65,11.65,0,0,1,8.39,3.23.64.64,0,0,1,0,1l-2.7,2.8a.6.6,0,0,1-.87,0,7.09,7.09,0,0,0-4.68-1.76,7.09,7.09,0,0,0,0,14.17,7.32,7.32,0,0,0,4.64-1.66.68.68,0,0,1,.9,0L21.18,176a.69.69,0,0,1,0,.94,11.86,11.86,0,0,1-8.42,3.36,12.48,12.48,0,1,1,0-25Z"/><path class="cls-4" d="M35.87,155.38A12.48,12.48,0,1,1,23.43,167.9,12.46,12.46,0,0,1,35.87,155.38Zm0,19.41A6.93,6.93,0,1,0,29,167.9,6.94,6.94,0,0,0,35.87,174.79Z"/><path class="cls-4" d="M52.5,156a.65.65,0,0,1,.66-.63H54l13.83,13.31h0v-12.3a.66.66,0,0,1,.66-.66h4.16a.68.68,0,0,1,.66.66v23.32a.65.65,0,0,1-.66.63h-.56a1,1,0,0,1-.45-.17L58,166.4h0v12.93a.66.66,0,0,1-.66.66H53.19a.68.68,0,0,1-.65-.66Z"/><path class="cls-4" d="M77.94,176.7l1.63-2.88a.87.87,0,0,1,1.17-.2c.14.06,2.64,1.9,4.93,1.9a2.18,2.18,0,0,0,2.39-2.08c0-1.45-1.22-2.56-3.57-3.5-3-1.18-6.73-3.5-6.73-7.66,0-3.43,2.67-6.9,8-6.9a12.93,12.93,0,0,1,7.42,2.6.9.9,0,0,1,.21,1.11l-1.77,2.67c-.24.38-.87.69-1.18.45s-2.84-2.08-5-2.08a2,2,0,0,0-2.18,1.77c0,1.28,1,2.25,3.78,3.36s7,3.19,7,7.9c0,3.57-3.09,7.18-8.18,7.18-4.51,0-7-1.87-7.8-2.67C77.76,177.32,77.66,177.18,77.94,176.7Z"/><path class="cls-4" d="M98.31,156.39a.66.66,0,0,1,.66-.66h14.35a.66.66,0,0,1,.66.66v3.78a.66.66,0,0,1-.66.65h-9.6v4.3h7.9a.68.68,0,0,1,.66.66v3.78a.66.66,0,0,1-.66.66h-7.9v4.68h9.6a.66.66,0,0,1,.66.66v3.77a.66.66,0,0,1-.66.66H99a.66.66,0,0,1-.66-.66Z"/><path class="cls-4" d="M118.59,156a.65.65,0,0,1,.65-.63h.87l13.83,13.31h0v-12.3a.65.65,0,0,1,.65-.66h4.16a.68.68,0,0,1,.66.66v23.32a.65.65,0,0,1-.66.63h-.55a1,1,0,0,1-.45-.17L124.1,166.4h0v12.93a.65.65,0,0,1-.66.66h-4.12a.68.68,0,0,1-.66-.66Z"/><path class="cls-4" d="M144,176.7l1.63-2.88a.89.89,0,0,1,1.18-.2c.14.06,2.63,1.9,4.92,1.9a2.17,2.17,0,0,0,2.39-2.08c0-1.45-1.21-2.56-3.57-3.5-3-1.18-6.72-3.5-6.72-7.66,0-3.43,2.67-6.9,8-6.9a12.89,12.89,0,0,1,7.41,2.6.88.88,0,0,1,.21,1.11l-1.77,2.67c-.24.38-.86.69-1.18.45s-2.84-2.08-4.95-2.08a2,2,0,0,0-2.19,1.77c0,1.28,1,2.25,3.78,3.36s7,3.19,7,7.9c0,3.57-3.08,7.18-8.18,7.18-4.5,0-7-1.87-7.8-2.67C143.85,177.32,143.74,177.18,144,176.7Z"/><path class="cls-4" d="M164.05,156.39a.68.68,0,0,1,.66-.66H169a.66.66,0,0,1,.66.66v14a4.3,4.3,0,1,0,8.6,0v-14a.65.65,0,0,1,.66-.66h4.26a.68.68,0,0,1,.66.66V170.7a9.88,9.88,0,0,1-19.76,0Z"/><path class="cls-4" d="M188,176.7l1.63-2.88a.87.87,0,0,1,1.17-.2c.14.06,2.64,1.9,4.93,1.9a2.18,2.18,0,0,0,2.39-2.08c0-1.45-1.21-2.56-3.57-3.5-3-1.18-6.73-3.5-6.73-7.66,0-3.43,2.67-6.9,8-6.9a12.93,12.93,0,0,1,7.42,2.6.9.9,0,0,1,.21,1.11l-1.77,2.67c-.24.38-.87.69-1.18.45s-2.84-2.08-5-2.08a2,2,0,0,0-2.18,1.77c0,1.28,1,2.25,3.78,3.36s7,3.19,7,7.9c0,3.57-3.09,7.18-8.18,7.18-4.51,0-7-1.87-7.8-2.67C187.82,177.32,187.72,177.18,188,176.7Z"/><path class="cls-4" d="M228.16,155.38a11.65,11.65,0,0,1,8.39,3.23.65.65,0,0,1,0,1l-2.71,2.8a.59.59,0,0,1-.86,0,7.13,7.13,0,0,0-4.68-1.76,7.09,7.09,0,0,0,0,14.17,7.37,7.37,0,0,0,4.65-1.66.68.68,0,0,1,.9,0l2.7,2.88a.7.7,0,0,1,0,.94,11.9,11.9,0,0,1-8.43,3.36,12.48,12.48,0,1,1,0-25Z"/><path class="cls-4" d="M240.74,156.39a.66.66,0,0,1,.66-.66h4.12a.68.68,0,0,1,.66.66V174.9h8.25a.66.66,0,0,1,.66.66v3.77a.66.66,0,0,1-.66.66h-13a.66.66,0,0,1-.66-.66Z"/><path class="cls-4" d="M257.82,156.39a.69.69,0,0,1,.66-.66h4.27a.65.65,0,0,1,.65.66v14a4.3,4.3,0,1,0,8.6,0v-14a.66.66,0,0,1,.66-.66h4.26a.68.68,0,0,1,.66.66V170.7a9.88,9.88,0,0,1-19.76,0Z"/><path class="cls-4" d="M283.16,156.39a.65.65,0,0,1,.65-.66h8.08c4.09,0,7.45,2.81,7.45,6.45,0,2.67-2.39,4.61-4,5.47,1.84.77,4.65,2.46,4.65,5.65,0,3.88-3.43,6.69-7.56,6.69h-8.6a.65.65,0,0,1-.65-.66Zm8.11,9.18a2.47,2.47,0,0,0,2.42-2.49,2.35,2.35,0,0,0-2.42-2.36h-2.71v4.85Zm.45,9.47a2.51,2.51,0,0,0,2.49-2.53,2.77,2.77,0,0,0-2.84-2.43h-2.81v5Z"/><path class="cls-4" d="M303,176.7l1.63-2.88a.89.89,0,0,1,1.18-.2c.13.06,2.63,1.9,4.92,1.9a2.18,2.18,0,0,0,2.39-2.08c0-1.45-1.21-2.56-3.57-3.5-3-1.18-6.73-3.5-6.73-7.66,0-3.43,2.67-6.9,8-6.9a12.9,12.9,0,0,1,7.42,2.6.89.89,0,0,1,.21,1.11l-1.77,2.67c-.24.38-.87.69-1.18.45s-2.84-2.08-5-2.08a2,2,0,0,0-2.18,1.77c0,1.28,1,2.25,3.78,3.36s7,3.19,7,7.9c0,3.57-3.08,7.18-8.18,7.18-4.51,0-7-1.87-7.8-2.67C302.8,177.32,302.7,177.18,303,176.7Z"/></g></g></svg>