<svg xmlns="http://www.w3.org/2000/svg" viewBox="0 0 108.01 60.39"><defs><style>.cls-1{fill:#6fcbdc;}.cls-2{fill:#85bb64;}.cls-3{fill:#539677;}</style></defs><title>Asset 4</title><g id="Layer_2" data-name="Layer 2"><g id="Menu"><path class="cls-1" d="M53.6,38.4a24.26,24.26,0,0,1,14.07,22H86.9a43.48,43.48,0,0,0-22-37.78,24.41,24.41,0,0,0-4.74,3.69A24.11,24.11,0,0,0,53.6,38.4Z"/><path class="cls-1" d="M0,60.39H19.23A24.26,24.26,0,0,1,34.17,38,43,43,0,0,1,42.83,17,43.5,43.5,0,0,0,0,60.39Z"/><path class="cls-2" d="M94.42,26.3,108,12.71a43.5,43.5,0,0,0-61.45,0A45.25,45.25,0,0,0,42.83,17h.62A43.19,43.19,0,0,1,64.9,22.61,24.28,24.28,0,0,1,94.42,26.3Z"/><path class="cls-2" d="M34.17,38a44.31,44.31,0,0,0-.33,5.42,43.47,43.47,0,0,0,3.42,17H60a24.23,24.23,0,0,1-6.4-22A24.16,24.16,0,0,0,34.17,38Z"/><path class="cls-3" d="M42.83,17A43,43,0,0,0,34.17,38a24.16,24.16,0,0,1,19.43.39,24.11,24.11,0,0,1,6.56-12.1,24.41,24.41,0,0,1,4.74-3.69,43.19,43.19,0,0,0-21.45-5.67Z"/></g></g></svg>