<?xml version="1.0" encoding="UTF-8"?>
<svg width="15px" height="15px" viewBox="0 0 15 15" version="1.1" xmlns="http://www.w3.org/2000/svg" xmlns:xlink="http://www.w3.org/1999/xlink">
    <!-- Generator: Sketch 51 (57462) - http://www.bohemiancoding.com/sketch -->
    <title>Home-active</title>
    <desc>Created with Sketch.</desc>
    <defs></defs>
    <g id="Home-active" stroke="none" stroke-width="1" fill="none" fill-rule="evenodd">
        <g>
            <path d="M14.7303327,6.30586694 L12.4597681,4.03530242 L12.4597681,1.41241935 C12.4597681,0.938165323 12.0754536,0.553820565 11.600504,0.553820565 C11.1266431,0.553820565 10.7423286,0.938165323 10.7423286,1.41241935 L10.7423286,2.31789315 L9.05171371,0.627217742 C8.21585685,-0.208185484 6.76258065,-0.206703629 5.92862903,0.628729839 L0.251370968,6.30586694 C-0.0837701613,6.64167339 -0.0837701613,7.18503024 0.251370968,7.52032258 C0.586663306,7.85603831 1.13107863,7.85603831 1.46625,7.52032258 L7.14296371,1.84303427 C7.32789315,1.65907258 7.65384073,1.65907258 7.83780242,1.84248992 L13.5154839,7.52032258 C13.6838407,7.68819556 13.9033367,7.77169355 14.1227722,7.77169355 C14.3426613,7.77169355 14.5625202,7.68810484 14.7303629,7.52032258 C15.065625,7.18506048 15.065625,6.64170363 14.7303327,6.30586694 Z" id="Shape" fill="#373838" fill-rule="nonzero"></path>
            <path d="M7.78914315,3.4728629 C7.62420363,3.30801411 7.3571371,3.30801411 7.19268145,3.4728629 L2.19895161,8.46511089 C2.12011089,8.54392137 2.07541331,8.65152218 2.07541331,8.76381048 L2.07541331,12.4049698 C2.07541331,13.2593952 2.76819556,13.9521472 3.62259073,13.9521472 L6.09498992,13.9521472 L6.09498992,10.1232157 L8.88629032,10.1232157 L8.88629032,13.9521472 L11.3587198,13.9521472 C12.2130847,13.9521472 12.9058669,13.2593952 12.9058669,12.405 L12.9058669,8.76381048 C12.9058669,8.65152218 12.8615625,8.54392137 12.7823286,8.46511089 L7.78914315,3.4728629 Z" id="Shape" fill="#373838" fill-rule="nonzero"></path>
            <circle id="Oval" fill="#4A90E2" cx="7.5" cy="7.5" r="1.5"></circle>
        </g>
    </g>
</svg>