<?xml version="1.0" encoding="UTF-8"?>
<svg width="15px" height="15px" viewBox="0 0 15 15" version="1.1" xmlns="http://www.w3.org/2000/svg" xmlns:xlink="http://www.w3.org/1999/xlink">
    <!-- Generator: Sketch 51 (57462) - http://www.bohemiancoding.com/sketch -->
    <title>Notifications</title>
    <desc>Created with Sketch.</desc>
    <defs></defs>
    <g id="Notifications" stroke="none" stroke-width="1" fill="none" fill-rule="evenodd">
        <g id="notification-inactive" transform="translate(1.000000, 0.000000)" fill-rule="nonzero">
            <path d="M4.20538652,0.94458152 C3.40174982,1.65752924 2.9406524,2.67772295 2.9406524,3.74326114 L2.9406524,5.59907254 C2.9406524,6.87522842 2.50628199,8.13082512 1.71795047,9.13468567 L0.282917573,10.9612573 L13.0837674,10.9612573 L11.6487345,9.13468567 C10.8601745,8.13116778 10.4258041,6.87545687 10.4258041,5.59907254 L10.4258041,5.07161459 C10.3939373,5.07401316 10.3629843,5.07264254 10.3311175,5.07401316 C9.5780793,5.10850696 8.82287099,4.82433298 8.27759503,4.30270012 C7.76190149,3.80985015 7.44563231,3.11426351 7.41353711,2.40154421 C7.37927175,1.64290936 7.66801444,0.872167398 8.19684301,0.325977719 C7.85944354,0.171783626 7.50582512,0.0718430117 7.14032804,0.0279833626 C6.06039839,-0.10199652 5.01781798,0.223866959 4.20538652,0.94458152 Z" id="Shape" fill="#373838"></path>
            <path d="M4.10142544,12 C4.28988969,13.1171432 5.26387424,13.9708744 6.43390197,13.9708744 C7.60376133,13.9708744 8.57791429,13.1171432 8.7663785,12 L4.10142544,12 Z" id="Shape" fill="#373838"></path>
            <path d="M8.46388433,0.846811053 C8.13105354,1.25308389 7.9334567,1.77174708 7.94579222,2.32536094 C7.96178272,3.03613854 8.33367599,3.73012608 8.91698649,4.13674158 C10.1067937,4.96630573 11.8116091,4.43884778 12.3352979,3.09393275 C12.4368375,2.83271655 12.4886924,2.55311129 12.4886924,2.27293494 C12.4886924,1.01996526 11.4694125,0.000685307018 10.2164428,0.000685307018 C9.51788652,0.000685307018 8.88352064,0.334315614 8.46388433,0.846811053 Z" id="Shape" fill="#ADADAD"></path>
            <polygon id="Shape" fill="#ADADAD" points="0.000114217836 12.0996436 13.3663423 12.0996436 13.3663423 10.4956826 0.000114217836 10.4956826"></polygon>
        </g>
    </g>
</svg>